<svg xmlns="http://www.w3.org/2000/svg"><symbol id="mechastilts" viewBox="0 0 256 256"><path d="M77.7 156.6h13.1v12.9H77.7zm17.2 0h20.5v12.9H94.9zm24.6 0h13.1v12.9h-13.1zm17.2 0h20.5v12.9h-20.5zm34.4-44.4H81c1-26.4 21.1-40.9 45-40.9s44.1 14.5 45.1 40.9zm-9.8 44.4h13.1v12.9h-13.1zm-95.9-40.3v36.2h121.2v-36.2zM175 142.7h-50a2 2 0 0 1 0-4.1h50a2 2 0 0 1 0 4.1z"/><path d="M126 2.9L18.1 65.2v124.7l108 62.3 108-62.3V65.2zm64.7 151.7a1.9 1.9 0 0 1-2.1 2h-10.1v12.9h10.2a2 2 0 1 1 0 4.1H63.4a2 2 0 1 1 0-4.1h10.2v-12.9H63.4a1.9 1.9 0 0 1-2-2v-40.3a1.9 1.9 0 0 1 2-2h13.5c1-29.1 22.7-45 49.1-45s48.1 16 49.1 45h13.5a1.9 1.9 0 0 1 2.1 2z"/></symbol><symbol id="spacebubbles" viewBox="0 0 256 256"><path d="M129.5 4L21.6 66.3V191l108 62.3 108-62.3V66.3zM195 172.5l-4.7 6.8a2.2 2.2 0 0 1-2.7.6l-9.8-5.1H81l-9.8 5.1a2.2 2.2 0 0 1-2.7-.6l-4.7-6.8a2.1 2.1 0 0 1 .2-2.5l17-20h-8.4a1.9 1.9 0 0 1-2-2v-14.8a1.9 1.9 0 0 1 2-2h11.9a57.2 57.2 0 0 1-2.3-15.6 48.4 48.4 0 0 1 96.8 0 50.2 50.2 0 0 1-2.3 15.6h11.9a1.9 1.9 0 0 1 2 2v14.7a1.9 1.9 0 0 1-2 2h-10.3l16.8 20.1a2.2 2.2 0 0 1 0 2.5zm-36.9-22.9l-6.1 7.1 34.5 18 2.8-3.9-17.8-21.3zm27-14.6H74.2v10.5h111zm-14-4.1a49 49 0 0 0 2.4-15.4 43.9 43.9 0 0 0-87.8 0c0 5.3.4 10.8 2.4 15.4zm-30 39.1h27.6l-19.3-10zm-36.9-20.5l17 20.5h14.6l17-20.5zm-15.8 20.6H116l-8.3-10.1zm10.5-20.5H85.5l-17.8 21.1 2.8 4 34.3-18z"/></symbol><symbol id="superdomes" viewBox="0 0 256 256"><path d="M91.7 128H69.8c6.3-24.7 28.2-43.7 54.3-45.3zm5.1 0l29.4-41.2V128H96.8zm-25.5 19.4h54.9v22.66H71.3zm59 0h9.2v22.66h-9.2zm13.2 0h41.6v22.66h-41.6zm43.1-19.4h-56.3V82.5a60.7 60.7 0 0 1 56.3 45.5zm-127 4.1h137.2v11.23H59.6z"/><path d="M128.2 3.9L20.6 66.1v124.3l107.6 62.1 107.6-62.1V66.1zm88 143.5h-26.9v24.7a1.9 1.9 0 0 1-2 2H69.2a1.9 1.9 0 0 1-2-2v-24.7h-27a2 2 0 1 1 0-4.1h15.4V130a1.9 1.9 0 0 1 2-2h8A64.7 64.7 0 0 1 128 78.4c.2-.2.4-.2.8 0 30.2.2 55.3 21.4 62.1 49.6h8a1.9 1.9 0 0 1 2 2v13.3h15.3a2 2 0 1 1 0 4.1z"/></symbol></svg>