<svg xmlns="http://www.w3.org/2000/svg"><symbol id="mechastilts" viewBox="0 0 256 256"><path d="M84.5 148.1H96v11.34H84.5zm15.1 0h18v11.34h-18zm21.6 0h11.5v11.34h-11.5zm15.2 0h18v11.34h-18zm30.2-39.1H87.4c.9-23.2 18.5-36 39.6-36s38.7 12.8 39.6 36zm-8.6 39.1h11.5v11.34H158zm-84.3-35.5v31.9h106.6v-31.9zm96.3 23.2h-43.9a1.8 1.8 0 0 1 0-3.6H170a1.8 1.8 0 0 1 0 3.6z"/><path d="M127 12.9L32.1 67.7v109.6l94.9 54.8 94.9-54.8V67.7zm56.9 133.4a1.7 1.7 0 0 1-1.8 1.8h-9v11.3h9a1.8 1.8 0 1 1 0 3.6H71.9a1.8 1.8 0 1 1 0-3.6h9v-11.3h-9a1.7 1.7 0 0 1-1.8-1.8v-35.5a1.7 1.7 0 0 1 1.8-1.8h11.9c.9-25.6 20-39.6 43.2-39.6s42.3 14 43.2 39.6h11.9a1.7 1.7 0 0 1 1.8 1.8z"/></symbol><symbol id="spacebubbles" viewBox="0 0 256 256"><path d="M132.5 16.4L37.6 71.2v109.6l94.9 54.8 94.9-54.8V71.2zm57.6 148.1l-4.1 5.9a1.9 1.9 0 0 1-2.3.5l-8.6-4.5H89.8l-8.6 4.6a2 2 0 0 1-2.3-.5l-4.1-5.9a1.9 1.9 0 0 1 .2-2.2l14.9-17.6h-7.4a1.7 1.7 0 0 1-1.8-1.8v-13a1.7 1.7 0 0 1 1.8-1.8h10.4a50.3 50.3 0 0 1-2-13.7 42.6 42.6 0 0 1 85.1 0 44.2 44.2 0 0 1-2 13.7h10.4a1.7 1.7 0 0 1 1.8 1.8v13a1.7 1.7 0 0 1-1.8 1.8h-9.2l14.8 17.6a1.9 1.9 0 0 1 .1 2.1zm-31.3-19.8l-5.4 6.3 30.6 16 2.5-3.4-15.8-18.9zm23.9-13H84.3v9.4h98.5zm-12.4-3.6a43.5 43.5 0 0 0 2.2-13.7 39 39 0 0 0-77.9 0c0 4.7.4 9.5 2.2 13.7zm-26.6 34.7h24.5l-17.1-9zm-32.8-18.2l15.1 18.3h13l15.1-18.2zm-14 18.2h24.5l-7.4-9zm9.4-18.2h-12l-15.8 18.8L81 167l30.4-16z"/></symbol><symbol id="superdomes" viewBox="0 0 256 256"><path d="M97.3 124.3H78c5.6-21.8 24.8-38.5 47.9-40zm4.5 0L127.7 88v36.3h-25.9zm-22.5 17.1h48.4v19.98H79.3zm52 0h8.1v19.98h-8.1zm11.7 0h36.7v19.98H143zm38-17.1h-49.7V84.2a53.5 53.5 0 0 1 49.7 40.1zm-112 3.6h120.9v9.9H69z"/><path d="M129.5 14.9L34.6 69.7v109.6l94.9 54.8 94.9-54.8V69.7zm77.6 126.5h-23.8v21.8a1.7 1.7 0 0 1-1.8 1.8h-104a1.7 1.7 0 0 1-1.8-1.8v-21.8H51.9a1.8 1.8 0 0 1 0-3.6h13.5v-11.7a1.7 1.7 0 0 1 1.8-1.8h7a57.1 57.1 0 0 1 55.1-43.7c.2-.2.4-.2.7 0a56.9 56.9 0 0 1 54.7 43.7h7a1.7 1.7 0 0 1 1.8 1.8v11.7H207a1.8 1.8 0 1 1 0 3.6z"/></symbol></svg>